<mxfile host="app.diagrams.net" modified="2022-06-06T00:52:54.552Z" agent="5.0 (Windows NT 10.0; Win64; x64) AppleWebKit/537.36 (KHTML, like Gecko) Chrome/102.0.5005.63 Safari/537.36 Edg/102.0.1245.30" etag="XKmFABDc_I7g9KjDmRw0" version="19.0.0" type="github" pages="3">
  <diagram name="Overview" id="03018318-947c-dd8e-b7a3-06fadd420f32">
    <mxGraphModel dx="1391" dy="861" grid="1" gridSize="10" guides="1" tooltips="1" connect="1" arrows="1" fold="1" page="1" pageScale="1" pageWidth="1100" pageHeight="850" background="none" math="0" shadow="0">
      <root>
        <mxCell id="0" />
        <mxCell id="1" parent="0" />
        <mxCell id="677b7b8949515195-1" value="" style="whiteSpace=wrap;html=1;rounded=0;shadow=0;labelBackgroundColor=none;strokeColor=#000000;strokeWidth=1;fillColor=none;fontFamily=Verdana;fontSize=12;fontColor=#000000;align=center;comic=1;" parent="1" vertex="1">
          <mxGeometry x="20" y="20" width="1060" height="810" as="geometry" />
        </mxCell>
        <mxCell id="677b7b8949515195-2" value="LOGO" style="whiteSpace=wrap;html=1;rounded=0;shadow=0;labelBackgroundColor=none;strokeWidth=1;fontFamily=Verdana;fontSize=28;align=center;comic=1;" parent="1" vertex="1">
          <mxGeometry x="40" y="60" width="190" height="50" as="geometry" />
        </mxCell>
        <mxCell id="677b7b8949515195-3" value="Search" style="strokeWidth=1;shadow=0;dashed=0;align=center;html=1;shape=mxgraph.mockup.forms.searchBox;strokeColor=#999999;mainText=;strokeColor2=#008cff;fontColor=#666666;fontSize=17;align=left;spacingLeft=3;rounded=0;labelBackgroundColor=none;comic=1;" parent="1" vertex="1">
          <mxGeometry x="840" y="95" width="220" height="30" as="geometry" />
        </mxCell>
        <mxCell id="677b7b8949515195-8" value="" style="whiteSpace=wrap;html=1;rounded=0;shadow=0;labelBackgroundColor=none;strokeWidth=1;fillColor=none;fontFamily=Verdana;fontSize=12;align=center;comic=1;" parent="1" vertex="1">
          <mxGeometry x="30" y="230" width="200" height="450" as="geometry" />
        </mxCell>
        <mxCell id="677b7b8949515195-9" value="" style="line;strokeWidth=1;html=1;rounded=0;shadow=0;labelBackgroundColor=none;fillColor=none;fontFamily=Verdana;fontSize=14;fontColor=#000000;align=center;comic=1;" parent="1" vertex="1">
          <mxGeometry x="20" y="140" width="1060" height="10" as="geometry" />
        </mxCell>
        <mxCell id="677b7b8949515195-10" value="" style="whiteSpace=wrap;html=1;rounded=0;shadow=0;labelBackgroundColor=none;strokeWidth=1;fillColor=none;fontFamily=Verdana;fontSize=12;align=center;comic=1;" parent="1" vertex="1">
          <mxGeometry x="30" y="160" width="1040" height="50" as="geometry" />
        </mxCell>
        <mxCell id="677b7b8949515195-11" value="Section 1" style="text;html=1;points=[];align=left;verticalAlign=top;spacingTop=-4;fontSize=14;fontFamily=Verdana" parent="1" vertex="1">
          <mxGeometry x="330" y="175" width="60" height="20" as="geometry" />
        </mxCell>
        <mxCell id="677b7b8949515195-12" value="Section 2" style="text;html=1;points=[];align=left;verticalAlign=top;spacingTop=-4;fontSize=14;fontFamily=Verdana" parent="1" vertex="1">
          <mxGeometry x="477" y="175" width="60" height="20" as="geometry" />
        </mxCell>
        <mxCell id="677b7b8949515195-13" value="Section 3" style="text;html=1;points=[];align=left;verticalAlign=top;spacingTop=-4;fontSize=14;fontFamily=Verdana" parent="1" vertex="1">
          <mxGeometry x="623" y="175" width="60" height="20" as="geometry" />
        </mxCell>
        <mxCell id="677b7b8949515195-14" value="Section 4" style="text;html=1;points=[];align=left;verticalAlign=top;spacingTop=-4;fontSize=14;fontFamily=Verdana" parent="1" vertex="1">
          <mxGeometry x="770" y="175" width="60" height="20" as="geometry" />
        </mxCell>
        <mxCell id="677b7b8949515195-15" value="&lt;div style=&quot;text-align: justify&quot;&gt;&lt;span&gt;Lorem ipsum dolor sit amet, consectetur adipisicing elit, sed do eiusmod tempor incididunt ut labore et dolore magna aliqua. Ut enim ad minim veniam, quis nostrud exercitation ullamco laboris nisi ut aliquip ex ea commodo consequat. Duis aute irure dolor in reprehenderit in voluptate velit esse cillum dolore eu fugiat nulla pariatur. Excepteur sint occaecat cupidatat non proident, sunt in culpa qui officia deserunt mollit anim id est laborum.&lt;/span&gt;&lt;/div&gt;&lt;div style=&quot;text-align: justify&quot;&gt;&lt;br&gt;&lt;/div&gt;" style="whiteSpace=wrap;html=1;rounded=0;shadow=0;labelBackgroundColor=none;strokeWidth=1;fillColor=none;fontFamily=Verdana;fontSize=12;align=center;verticalAlign=top;spacing=10;comic=1;" parent="1" vertex="1">
          <mxGeometry x="30" y="710" width="800" height="110" as="geometry" />
        </mxCell>
        <mxCell id="677b7b8949515195-26" value="" style="whiteSpace=wrap;html=1;rounded=0;shadow=0;labelBackgroundColor=none;strokeWidth=1;fillColor=none;fontFamily=Verdana;fontSize=12;align=center;comic=1;" parent="1" vertex="1">
          <mxGeometry x="840" y="710" width="230" height="110" as="geometry" />
        </mxCell>
        <mxCell id="677b7b8949515195-42" value="External Links" style="text;html=1;points=[];align=left;verticalAlign=top;spacingTop=-4;fontSize=14;fontFamily=Verdana" parent="1" vertex="1">
          <mxGeometry x="870" y="730" width="170" height="20" as="geometry" />
        </mxCell>
        <mxCell id="9RlxNMYtPZdb5CsPDulE-1" value="" style="strokeWidth=1;shadow=0;dashed=0;align=center;html=1;shape=mxgraph.mockup.rrect;rSize=10;strokeColor=#666666;" vertex="1" parent="1">
          <mxGeometry x="50" y="450" width="160" height="200" as="geometry" />
        </mxCell>
        <mxCell id="9RlxNMYtPZdb5CsPDulE-2" value="Button 2" style="strokeColor=inherit;fillColor=inherit;gradientColor=inherit;strokeWidth=1;shadow=0;dashed=0;align=center;html=1;shape=mxgraph.mockup.rrect;rSize=0;fontSize=17;fontColor=#666666;fontStyle=1;resizeWidth=1;" vertex="1" parent="9RlxNMYtPZdb5CsPDulE-1">
          <mxGeometry width="160" height="50" relative="1" as="geometry">
            <mxPoint y="50" as="offset" />
          </mxGeometry>
        </mxCell>
        <mxCell id="9RlxNMYtPZdb5CsPDulE-3" value="Button 3" style="strokeColor=inherit;fillColor=inherit;gradientColor=inherit;strokeWidth=1;shadow=0;dashed=0;align=center;html=1;shape=mxgraph.mockup.rrect;rSize=0;fontSize=17;fontColor=#666666;fontStyle=1;resizeWidth=1;" vertex="1" parent="9RlxNMYtPZdb5CsPDulE-1">
          <mxGeometry width="160" height="50" relative="1" as="geometry">
            <mxPoint y="100" as="offset" />
          </mxGeometry>
        </mxCell>
        <mxCell id="9RlxNMYtPZdb5CsPDulE-4" value="Button 4" style="strokeColor=inherit;fillColor=inherit;gradientColor=inherit;strokeWidth=1;shadow=0;dashed=0;align=center;html=1;shape=mxgraph.mockup.bottomButton;rSize=10;fontSize=17;fontColor=#666666;fontStyle=1;resizeWidth=1;" vertex="1" parent="9RlxNMYtPZdb5CsPDulE-1">
          <mxGeometry y="1" width="160" height="50" relative="1" as="geometry">
            <mxPoint y="-50" as="offset" />
          </mxGeometry>
        </mxCell>
        <mxCell id="9RlxNMYtPZdb5CsPDulE-5" value="Button 1" style="strokeWidth=1;shadow=0;dashed=0;align=center;html=1;shape=mxgraph.mockup.topButton;rSize=10;fontSize=17;fontColor=#ffffff;fontStyle=1;fillColor=#008cff;strokeColor=#008cff;resizeWidth=1;" vertex="1" parent="9RlxNMYtPZdb5CsPDulE-1">
          <mxGeometry width="160" height="50" relative="1" as="geometry" />
        </mxCell>
        <mxCell id="9RlxNMYtPZdb5CsPDulE-6" value="" style="strokeWidth=1;shadow=0;dashed=0;align=center;html=1;shape=mxgraph.mockup.rrect;rSize=10;fillColor=#ffffff;strokeColor=#666666;" vertex="1" parent="1">
          <mxGeometry x="560" y="30" width="500" height="50" as="geometry" />
        </mxCell>
        <mxCell id="9RlxNMYtPZdb5CsPDulE-7" value="Button 2" style="strokeColor=inherit;fillColor=inherit;gradientColor=inherit;strokeWidth=1;shadow=0;dashed=0;align=center;html=1;shape=mxgraph.mockup.rrect;rSize=0;fontSize=17;fontColor=#666666;fontStyle=1;resizeHeight=1;" vertex="1" parent="9RlxNMYtPZdb5CsPDulE-6">
          <mxGeometry width="125" height="50" relative="1" as="geometry">
            <mxPoint x="125" as="offset" />
          </mxGeometry>
        </mxCell>
        <mxCell id="9RlxNMYtPZdb5CsPDulE-8" value="Button 3" style="strokeColor=inherit;fillColor=inherit;gradientColor=inherit;strokeWidth=1;shadow=0;dashed=0;align=center;html=1;shape=mxgraph.mockup.rrect;rSize=0;fontSize=17;fontColor=#666666;fontStyle=1;resizeHeight=1;" vertex="1" parent="9RlxNMYtPZdb5CsPDulE-6">
          <mxGeometry width="125" height="50" relative="1" as="geometry">
            <mxPoint x="250" as="offset" />
          </mxGeometry>
        </mxCell>
        <mxCell id="9RlxNMYtPZdb5CsPDulE-9" value="Button 4" style="strokeColor=inherit;fillColor=inherit;gradientColor=inherit;strokeWidth=1;shadow=0;dashed=0;align=center;html=1;shape=mxgraph.mockup.rightButton;rSize=10;fontSize=17;fontColor=#666666;fontStyle=1;resizeHeight=1;" vertex="1" parent="9RlxNMYtPZdb5CsPDulE-6">
          <mxGeometry x="1" width="125" height="50" relative="1" as="geometry">
            <mxPoint x="-125" as="offset" />
          </mxGeometry>
        </mxCell>
        <mxCell id="9RlxNMYtPZdb5CsPDulE-10" value="Button 1" style="strokeWidth=1;shadow=0;dashed=0;align=center;html=1;shape=mxgraph.mockup.leftButton;rSize=10;fontSize=17;fontColor=#ffffff;fontStyle=1;fillColor=#008cff;strokeColor=#008cff;resizeHeight=1;" vertex="1" parent="9RlxNMYtPZdb5CsPDulE-6">
          <mxGeometry width="125" height="50" relative="1" as="geometry" />
        </mxCell>
        <mxCell id="9RlxNMYtPZdb5CsPDulE-11" value="" style="verticalLabelPosition=bottom;shadow=0;dashed=0;align=center;html=1;verticalAlign=top;strokeWidth=1;shape=mxgraph.mockup.graphics.pieChart;strokeColor=#008cff;parts=10,20,35;partColors=#e0e0e0,#d0d0d0,#c0c0c0,#b0b0b0,#a0a0a0;strokeWidth=2;" vertex="1" parent="1">
          <mxGeometry x="770" y="216" width="300" height="209" as="geometry" />
        </mxCell>
        <mxCell id="9RlxNMYtPZdb5CsPDulE-12" value="" style="verticalLabelPosition=bottom;shadow=0;dashed=0;align=center;html=1;verticalAlign=top;strokeWidth=1;shape=mxgraph.mockup.graphics.plotChart;strokeColor=none;strokeColor2=#aaaaaa;strokeColor3=#666666;fillColor2=#99aaff,#0022ff,#008cff;" vertex="1" parent="1">
          <mxGeometry x="250" y="450" width="500" height="230" as="geometry" />
        </mxCell>
        <mxCell id="9RlxNMYtPZdb5CsPDulE-14" value="" style="verticalLabelPosition=bottom;shadow=0;dashed=0;align=center;html=1;verticalAlign=top;strokeWidth=1;shape=mxgraph.mockup.misc.map;" vertex="1" parent="1">
          <mxGeometry x="770" y="450" width="300" height="230" as="geometry" />
        </mxCell>
        <mxCell id="9RlxNMYtPZdb5CsPDulE-15" value="" style="verticalLabelPosition=bottom;shadow=0;dashed=0;align=center;html=1;verticalAlign=top;strokeWidth=1;shape=mxgraph.mockup.graphics.columnChart;strokeColor=none;strokeColor2=none;strokeColor3=#666666;fillColor2=#008cff;fillColor3=#dddddd;" vertex="1" parent="1">
          <mxGeometry x="250" y="230" width="500" height="200" as="geometry" />
        </mxCell>
        <mxCell id="9RlxNMYtPZdb5CsPDulE-16" value="" style="strokeWidth=1;shadow=0;dashed=0;align=center;html=1;shape=mxgraph.mockup.forms.rrect;rSize=5;strokeColor=#999999;fillColor=#ffffff;" vertex="1" parent="1">
          <mxGeometry x="50" y="242.5" width="160" height="177.5" as="geometry" />
        </mxCell>
        <mxCell id="9RlxNMYtPZdb5CsPDulE-17" value="October 2014" style="strokeWidth=1;shadow=0;dashed=0;align=center;html=1;shape=mxgraph.mockup.forms.anchor;fontColor=#999999;" vertex="1" parent="9RlxNMYtPZdb5CsPDulE-16">
          <mxGeometry x="30" y="8.114285714285716" width="100" height="20.28571428571429" as="geometry" />
        </mxCell>
        <mxCell id="9RlxNMYtPZdb5CsPDulE-18" value="&lt;" style="strokeWidth=1;shadow=0;dashed=0;align=center;html=1;shape=mxgraph.mockup.forms.rrect;rSize=4;strokeColor=#999999;fontColor=#008cff;fontSize=19;fontStyle=1;" vertex="1" parent="9RlxNMYtPZdb5CsPDulE-16">
          <mxGeometry x="8" y="8.114285714285716" width="25" height="20.28571428571429" as="geometry" />
        </mxCell>
        <mxCell id="9RlxNMYtPZdb5CsPDulE-19" value="&gt;" style="strokeWidth=1;shadow=0;dashed=0;align=center;html=1;shape=mxgraph.mockup.forms.rrect;rSize=4;strokeColor=#999999;fontColor=#008cff;fontSize=19;fontStyle=1;" vertex="1" parent="9RlxNMYtPZdb5CsPDulE-16">
          <mxGeometry x="127" y="8.114285714285716" width="25" height="20.28571428571429" as="geometry" />
        </mxCell>
        <mxCell id="9RlxNMYtPZdb5CsPDulE-20" value="Mo" style="strokeWidth=1;shadow=0;dashed=0;align=center;html=1;shape=mxgraph.mockup.forms.anchor;fontColor=#999999;" vertex="1" parent="9RlxNMYtPZdb5CsPDulE-16">
          <mxGeometry x="10" y="28.400000000000002" width="20" height="20.28571428571429" as="geometry" />
        </mxCell>
        <mxCell id="9RlxNMYtPZdb5CsPDulE-21" value="Tu" style="strokeWidth=1;shadow=0;dashed=0;align=center;html=1;shape=mxgraph.mockup.forms.anchor;fontColor=#999999;" vertex="1" parent="9RlxNMYtPZdb5CsPDulE-16">
          <mxGeometry x="30" y="28.400000000000002" width="20" height="20.28571428571429" as="geometry" />
        </mxCell>
        <mxCell id="9RlxNMYtPZdb5CsPDulE-22" value="We" style="strokeWidth=1;shadow=0;dashed=0;align=center;html=1;shape=mxgraph.mockup.forms.anchor;fontColor=#999999;" vertex="1" parent="9RlxNMYtPZdb5CsPDulE-16">
          <mxGeometry x="50" y="28.400000000000002" width="20" height="20.28571428571429" as="geometry" />
        </mxCell>
        <mxCell id="9RlxNMYtPZdb5CsPDulE-23" value="Th" style="strokeWidth=1;shadow=0;dashed=0;align=center;html=1;shape=mxgraph.mockup.forms.anchor;fontColor=#999999;" vertex="1" parent="9RlxNMYtPZdb5CsPDulE-16">
          <mxGeometry x="70" y="28.400000000000002" width="20" height="20.28571428571429" as="geometry" />
        </mxCell>
        <mxCell id="9RlxNMYtPZdb5CsPDulE-24" value="Fr" style="strokeWidth=1;shadow=0;dashed=0;align=center;html=1;shape=mxgraph.mockup.forms.anchor;fontColor=#999999;" vertex="1" parent="9RlxNMYtPZdb5CsPDulE-16">
          <mxGeometry x="90" y="28.400000000000002" width="20" height="20.28571428571429" as="geometry" />
        </mxCell>
        <mxCell id="9RlxNMYtPZdb5CsPDulE-25" value="Sa" style="strokeWidth=1;shadow=0;dashed=0;align=center;html=1;shape=mxgraph.mockup.forms.anchor;fontColor=#999999;" vertex="1" parent="9RlxNMYtPZdb5CsPDulE-16">
          <mxGeometry x="110" y="28.400000000000002" width="20" height="20.28571428571429" as="geometry" />
        </mxCell>
        <mxCell id="9RlxNMYtPZdb5CsPDulE-26" value="Su" style="strokeWidth=1;shadow=0;dashed=0;align=center;html=1;shape=mxgraph.mockup.forms.anchor;fontColor=#999999;" vertex="1" parent="9RlxNMYtPZdb5CsPDulE-16">
          <mxGeometry x="130" y="28.400000000000002" width="20" height="20.28571428571429" as="geometry" />
        </mxCell>
        <mxCell id="9RlxNMYtPZdb5CsPDulE-27" value="1" style="strokeWidth=1;shadow=0;dashed=0;align=center;html=1;shape=mxgraph.mockup.forms.rrect;rSize=0;strokeColor=#999999;fontColor=#999999;" vertex="1" parent="9RlxNMYtPZdb5CsPDulE-16">
          <mxGeometry x="10" y="48.685714285714276" width="20" height="20.28571428571429" as="geometry" />
        </mxCell>
        <mxCell id="9RlxNMYtPZdb5CsPDulE-28" value="2" style="strokeWidth=1;shadow=0;dashed=0;align=center;html=1;shape=mxgraph.mockup.forms.rrect;rSize=0;strokeColor=#999999;fontColor=#999999;" vertex="1" parent="9RlxNMYtPZdb5CsPDulE-16">
          <mxGeometry x="30" y="48.685714285714276" width="20" height="20.28571428571429" as="geometry" />
        </mxCell>
        <mxCell id="9RlxNMYtPZdb5CsPDulE-29" value="3" style="strokeWidth=1;shadow=0;dashed=0;align=center;html=1;shape=mxgraph.mockup.forms.rrect;rSize=0;strokeColor=#999999;fontColor=#999999;" vertex="1" parent="9RlxNMYtPZdb5CsPDulE-16">
          <mxGeometry x="50" y="48.685714285714276" width="20" height="20.28571428571429" as="geometry" />
        </mxCell>
        <mxCell id="9RlxNMYtPZdb5CsPDulE-30" value="4" style="strokeWidth=1;shadow=0;dashed=0;align=center;html=1;shape=mxgraph.mockup.forms.rrect;rSize=0;strokeColor=#999999;fontColor=#999999;" vertex="1" parent="9RlxNMYtPZdb5CsPDulE-16">
          <mxGeometry x="70" y="48.685714285714276" width="20" height="20.28571428571429" as="geometry" />
        </mxCell>
        <mxCell id="9RlxNMYtPZdb5CsPDulE-31" value="5" style="strokeWidth=1;shadow=0;dashed=0;align=center;html=1;shape=mxgraph.mockup.forms.rrect;rSize=0;strokeColor=#999999;fontColor=#999999;" vertex="1" parent="9RlxNMYtPZdb5CsPDulE-16">
          <mxGeometry x="90" y="48.685714285714276" width="20" height="20.28571428571429" as="geometry" />
        </mxCell>
        <mxCell id="9RlxNMYtPZdb5CsPDulE-32" value="6" style="strokeWidth=1;shadow=0;dashed=0;align=center;html=1;shape=mxgraph.mockup.forms.rrect;rSize=0;strokeColor=#999999;fontColor=#999999;" vertex="1" parent="9RlxNMYtPZdb5CsPDulE-16">
          <mxGeometry x="110" y="48.685714285714276" width="20" height="20.28571428571429" as="geometry" />
        </mxCell>
        <mxCell id="9RlxNMYtPZdb5CsPDulE-33" value="7" style="strokeWidth=1;shadow=0;dashed=0;align=center;html=1;shape=mxgraph.mockup.forms.rrect;rSize=0;strokeColor=#999999;fontColor=#999999;" vertex="1" parent="9RlxNMYtPZdb5CsPDulE-16">
          <mxGeometry x="130" y="48.685714285714276" width="20" height="20.28571428571429" as="geometry" />
        </mxCell>
        <mxCell id="9RlxNMYtPZdb5CsPDulE-34" value="8" style="strokeWidth=1;shadow=0;dashed=0;align=center;html=1;shape=mxgraph.mockup.forms.rrect;rSize=0;strokeColor=#999999;fontColor=#999999;" vertex="1" parent="9RlxNMYtPZdb5CsPDulE-16">
          <mxGeometry x="10" y="68.97142857142858" width="20" height="20.28571428571429" as="geometry" />
        </mxCell>
        <mxCell id="9RlxNMYtPZdb5CsPDulE-35" value="9" style="strokeWidth=1;shadow=0;dashed=0;align=center;html=1;shape=mxgraph.mockup.forms.rrect;rSize=0;strokeColor=#999999;fontColor=#999999;" vertex="1" parent="9RlxNMYtPZdb5CsPDulE-16">
          <mxGeometry x="30" y="68.97142857142858" width="20" height="20.28571428571429" as="geometry" />
        </mxCell>
        <mxCell id="9RlxNMYtPZdb5CsPDulE-36" value="10" style="strokeWidth=1;shadow=0;dashed=0;align=center;html=1;shape=mxgraph.mockup.forms.rrect;rSize=0;strokeColor=#999999;fontColor=#999999;" vertex="1" parent="9RlxNMYtPZdb5CsPDulE-16">
          <mxGeometry x="50" y="68.97142857142858" width="20" height="20.28571428571429" as="geometry" />
        </mxCell>
        <mxCell id="9RlxNMYtPZdb5CsPDulE-37" value="11" style="strokeWidth=1;shadow=0;dashed=0;align=center;html=1;shape=mxgraph.mockup.forms.rrect;rSize=0;strokeColor=#999999;fontColor=#999999;" vertex="1" parent="9RlxNMYtPZdb5CsPDulE-16">
          <mxGeometry x="70" y="68.97142857142858" width="20" height="20.28571428571429" as="geometry" />
        </mxCell>
        <mxCell id="9RlxNMYtPZdb5CsPDulE-38" value="12" style="strokeWidth=1;shadow=0;dashed=0;align=center;html=1;shape=mxgraph.mockup.forms.rrect;rSize=0;strokeColor=#999999;fontColor=#999999;" vertex="1" parent="9RlxNMYtPZdb5CsPDulE-16">
          <mxGeometry x="90" y="68.97142857142858" width="20" height="20.28571428571429" as="geometry" />
        </mxCell>
        <mxCell id="9RlxNMYtPZdb5CsPDulE-39" value="13" style="strokeWidth=1;shadow=0;dashed=0;align=center;html=1;shape=mxgraph.mockup.forms.rrect;rSize=0;strokeColor=#999999;fontColor=#999999;" vertex="1" parent="9RlxNMYtPZdb5CsPDulE-16">
          <mxGeometry x="110" y="68.97142857142858" width="20" height="20.28571428571429" as="geometry" />
        </mxCell>
        <mxCell id="9RlxNMYtPZdb5CsPDulE-40" value="14" style="strokeWidth=1;shadow=0;dashed=0;align=center;html=1;shape=mxgraph.mockup.forms.rrect;rSize=0;strokeColor=#999999;fontColor=#999999;" vertex="1" parent="9RlxNMYtPZdb5CsPDulE-16">
          <mxGeometry x="130" y="68.97142857142858" width="20" height="20.28571428571429" as="geometry" />
        </mxCell>
        <mxCell id="9RlxNMYtPZdb5CsPDulE-41" value="15" style="strokeWidth=1;shadow=0;dashed=0;align=center;html=1;shape=mxgraph.mockup.forms.rrect;rSize=0;strokeColor=#999999;fontColor=#999999;" vertex="1" parent="9RlxNMYtPZdb5CsPDulE-16">
          <mxGeometry x="10" y="89.25714285714287" width="20" height="20.28571428571429" as="geometry" />
        </mxCell>
        <mxCell id="9RlxNMYtPZdb5CsPDulE-42" value="16" style="strokeWidth=1;shadow=0;dashed=0;align=center;html=1;shape=mxgraph.mockup.forms.rrect;rSize=0;strokeColor=#999999;fontColor=#999999;" vertex="1" parent="9RlxNMYtPZdb5CsPDulE-16">
          <mxGeometry x="30" y="89.25714285714287" width="20" height="20.28571428571429" as="geometry" />
        </mxCell>
        <mxCell id="9RlxNMYtPZdb5CsPDulE-43" value="17" style="strokeWidth=1;shadow=0;dashed=0;align=center;html=1;shape=mxgraph.mockup.forms.rrect;rSize=0;strokeColor=#999999;fontColor=#999999;" vertex="1" parent="9RlxNMYtPZdb5CsPDulE-16">
          <mxGeometry x="50" y="89.25714285714287" width="20" height="20.28571428571429" as="geometry" />
        </mxCell>
        <mxCell id="9RlxNMYtPZdb5CsPDulE-44" value="18" style="strokeWidth=1;shadow=0;dashed=0;align=center;html=1;shape=mxgraph.mockup.forms.rrect;rSize=0;strokeColor=#999999;fontColor=#999999;" vertex="1" parent="9RlxNMYtPZdb5CsPDulE-16">
          <mxGeometry x="70" y="89.25714285714287" width="20" height="20.28571428571429" as="geometry" />
        </mxCell>
        <mxCell id="9RlxNMYtPZdb5CsPDulE-45" value="19" style="strokeWidth=1;shadow=0;dashed=0;align=center;html=1;shape=mxgraph.mockup.forms.rrect;rSize=0;strokeColor=#999999;fontColor=#999999;" vertex="1" parent="9RlxNMYtPZdb5CsPDulE-16">
          <mxGeometry x="90" y="89.25714285714287" width="20" height="20.28571428571429" as="geometry" />
        </mxCell>
        <mxCell id="9RlxNMYtPZdb5CsPDulE-46" value="20" style="strokeWidth=1;shadow=0;dashed=0;align=center;html=1;shape=mxgraph.mockup.forms.rrect;rSize=0;strokeColor=#999999;fontColor=#999999;" vertex="1" parent="9RlxNMYtPZdb5CsPDulE-16">
          <mxGeometry x="110" y="89.25714285714287" width="20" height="20.28571428571429" as="geometry" />
        </mxCell>
        <mxCell id="9RlxNMYtPZdb5CsPDulE-47" value="21" style="strokeWidth=1;shadow=0;dashed=0;align=center;html=1;shape=mxgraph.mockup.forms.rrect;rSize=0;strokeColor=#999999;fontColor=#999999;" vertex="1" parent="9RlxNMYtPZdb5CsPDulE-16">
          <mxGeometry x="130" y="89.25714285714287" width="20" height="20.28571428571429" as="geometry" />
        </mxCell>
        <mxCell id="9RlxNMYtPZdb5CsPDulE-48" value="22" style="strokeWidth=1;shadow=0;dashed=0;align=center;html=1;shape=mxgraph.mockup.forms.rrect;rSize=0;strokeColor=#999999;fontColor=#999999;" vertex="1" parent="9RlxNMYtPZdb5CsPDulE-16">
          <mxGeometry x="10" y="109.54285714285713" width="20" height="20.28571428571429" as="geometry" />
        </mxCell>
        <mxCell id="9RlxNMYtPZdb5CsPDulE-49" value="23" style="strokeWidth=1;shadow=0;dashed=0;align=center;html=1;shape=mxgraph.mockup.forms.rrect;rSize=0;strokeColor=#999999;fontColor=#999999;" vertex="1" parent="9RlxNMYtPZdb5CsPDulE-16">
          <mxGeometry x="30" y="109.54285714285713" width="20" height="20.28571428571429" as="geometry" />
        </mxCell>
        <mxCell id="9RlxNMYtPZdb5CsPDulE-50" value="25" style="strokeWidth=1;shadow=0;dashed=0;align=center;html=1;shape=mxgraph.mockup.forms.rrect;rSize=0;strokeColor=#999999;fontColor=#999999;" vertex="1" parent="9RlxNMYtPZdb5CsPDulE-16">
          <mxGeometry x="70" y="109.54285714285713" width="20" height="20.28571428571429" as="geometry" />
        </mxCell>
        <mxCell id="9RlxNMYtPZdb5CsPDulE-51" value="26" style="strokeWidth=1;shadow=0;dashed=0;align=center;html=1;shape=mxgraph.mockup.forms.rrect;rSize=0;strokeColor=#999999;fontColor=#999999;" vertex="1" parent="9RlxNMYtPZdb5CsPDulE-16">
          <mxGeometry x="90" y="109.54285714285713" width="20" height="20.28571428571429" as="geometry" />
        </mxCell>
        <mxCell id="9RlxNMYtPZdb5CsPDulE-52" value="27" style="strokeWidth=1;shadow=0;dashed=0;align=center;html=1;shape=mxgraph.mockup.forms.rrect;rSize=0;strokeColor=#999999;fontColor=#999999;" vertex="1" parent="9RlxNMYtPZdb5CsPDulE-16">
          <mxGeometry x="110" y="109.54285714285713" width="20" height="20.28571428571429" as="geometry" />
        </mxCell>
        <mxCell id="9RlxNMYtPZdb5CsPDulE-53" value="28" style="strokeWidth=1;shadow=0;dashed=0;align=center;html=1;shape=mxgraph.mockup.forms.rrect;rSize=0;strokeColor=#999999;fontColor=#999999;" vertex="1" parent="9RlxNMYtPZdb5CsPDulE-16">
          <mxGeometry x="130" y="109.54285714285713" width="20" height="20.28571428571429" as="geometry" />
        </mxCell>
        <mxCell id="9RlxNMYtPZdb5CsPDulE-54" value="29" style="strokeWidth=1;shadow=0;dashed=0;align=center;html=1;shape=mxgraph.mockup.forms.rrect;rSize=0;strokeColor=#999999;fontColor=#999999;" vertex="1" parent="9RlxNMYtPZdb5CsPDulE-16">
          <mxGeometry x="10" y="129.82857142857145" width="20" height="20.28571428571429" as="geometry" />
        </mxCell>
        <mxCell id="9RlxNMYtPZdb5CsPDulE-55" value="30" style="strokeWidth=1;shadow=0;dashed=0;align=center;html=1;shape=mxgraph.mockup.forms.rrect;rSize=0;strokeColor=#999999;fontColor=#999999;" vertex="1" parent="9RlxNMYtPZdb5CsPDulE-16">
          <mxGeometry x="30" y="129.82857142857145" width="20" height="20.28571428571429" as="geometry" />
        </mxCell>
        <mxCell id="9RlxNMYtPZdb5CsPDulE-56" value="31" style="strokeWidth=1;shadow=0;dashed=0;align=center;html=1;shape=mxgraph.mockup.forms.rrect;rSize=0;strokeColor=#999999;fontColor=#999999;" vertex="1" parent="9RlxNMYtPZdb5CsPDulE-16">
          <mxGeometry x="50" y="129.82857142857145" width="20" height="20.28571428571429" as="geometry" />
        </mxCell>
        <mxCell id="9RlxNMYtPZdb5CsPDulE-57" value="1" style="strokeWidth=1;shadow=0;dashed=0;align=center;html=1;shape=mxgraph.mockup.forms.rrect;rSize=0;strokeColor=#999999;fontColor=#999999;fillColor=#ddeeff;" vertex="1" parent="9RlxNMYtPZdb5CsPDulE-16">
          <mxGeometry x="70" y="129.82857142857145" width="20" height="20.28571428571429" as="geometry" />
        </mxCell>
        <mxCell id="9RlxNMYtPZdb5CsPDulE-58" value="2" style="strokeWidth=1;shadow=0;dashed=0;align=center;html=1;shape=mxgraph.mockup.forms.rrect;rSize=0;strokeColor=#999999;fontColor=#999999;fillColor=#ddeeff;" vertex="1" parent="9RlxNMYtPZdb5CsPDulE-16">
          <mxGeometry x="90" y="129.82857142857145" width="20" height="20.28571428571429" as="geometry" />
        </mxCell>
        <mxCell id="9RlxNMYtPZdb5CsPDulE-59" value="3" style="strokeWidth=1;shadow=0;dashed=0;align=center;html=1;shape=mxgraph.mockup.forms.rrect;rSize=0;strokeColor=#999999;fontColor=#999999;fillColor=#ddeeff;" vertex="1" parent="9RlxNMYtPZdb5CsPDulE-16">
          <mxGeometry x="110" y="129.82857142857145" width="20" height="20.28571428571429" as="geometry" />
        </mxCell>
        <mxCell id="9RlxNMYtPZdb5CsPDulE-60" value="4" style="strokeWidth=1;shadow=0;dashed=0;align=center;html=1;shape=mxgraph.mockup.forms.rrect;rSize=0;strokeColor=#999999;fontColor=#999999;fillColor=#ddeeff;" vertex="1" parent="9RlxNMYtPZdb5CsPDulE-16">
          <mxGeometry x="130" y="129.82857142857145" width="20" height="20.28571428571429" as="geometry" />
        </mxCell>
        <mxCell id="9RlxNMYtPZdb5CsPDulE-61" value="5" style="strokeWidth=1;shadow=0;dashed=0;align=center;html=1;shape=mxgraph.mockup.forms.rrect;rSize=0;strokeColor=#999999;fontColor=#999999;fillColor=#ddeeff;" vertex="1" parent="9RlxNMYtPZdb5CsPDulE-16">
          <mxGeometry x="10" y="150.11428571428573" width="20" height="20.28571428571429" as="geometry" />
        </mxCell>
        <mxCell id="9RlxNMYtPZdb5CsPDulE-62" value="6" style="strokeWidth=1;shadow=0;dashed=0;align=center;html=1;shape=mxgraph.mockup.forms.rrect;rSize=0;strokeColor=#999999;fontColor=#999999;fillColor=#ddeeff;" vertex="1" parent="9RlxNMYtPZdb5CsPDulE-16">
          <mxGeometry x="30" y="150.11428571428573" width="20" height="20.28571428571429" as="geometry" />
        </mxCell>
        <mxCell id="9RlxNMYtPZdb5CsPDulE-63" value="7" style="strokeWidth=1;shadow=0;dashed=0;align=center;html=1;shape=mxgraph.mockup.forms.rrect;rSize=0;strokeColor=#999999;fontColor=#999999;fillColor=#ddeeff;" vertex="1" parent="9RlxNMYtPZdb5CsPDulE-16">
          <mxGeometry x="50" y="150.11428571428573" width="20" height="20.28571428571429" as="geometry" />
        </mxCell>
        <mxCell id="9RlxNMYtPZdb5CsPDulE-64" value="8" style="strokeWidth=1;shadow=0;dashed=0;align=center;html=1;shape=mxgraph.mockup.forms.rrect;rSize=0;strokeColor=#999999;fontColor=#999999;fillColor=#ddeeff;" vertex="1" parent="9RlxNMYtPZdb5CsPDulE-16">
          <mxGeometry x="70" y="150.11428571428573" width="20" height="20.28571428571429" as="geometry" />
        </mxCell>
        <mxCell id="9RlxNMYtPZdb5CsPDulE-65" value="9" style="strokeWidth=1;shadow=0;dashed=0;align=center;html=1;shape=mxgraph.mockup.forms.rrect;rSize=0;strokeColor=#999999;fontColor=#999999;fillColor=#ddeeff;" vertex="1" parent="9RlxNMYtPZdb5CsPDulE-16">
          <mxGeometry x="90" y="150.11428571428573" width="20" height="20.28571428571429" as="geometry" />
        </mxCell>
        <mxCell id="9RlxNMYtPZdb5CsPDulE-66" value="10" style="strokeWidth=1;shadow=0;dashed=0;align=center;html=1;shape=mxgraph.mockup.forms.rrect;rSize=0;strokeColor=#999999;fontColor=#999999;fillColor=#ddeeff;" vertex="1" parent="9RlxNMYtPZdb5CsPDulE-16">
          <mxGeometry x="110" y="150.11428571428573" width="20" height="20.28571428571429" as="geometry" />
        </mxCell>
        <mxCell id="9RlxNMYtPZdb5CsPDulE-67" value="11" style="strokeWidth=1;shadow=0;dashed=0;align=center;html=1;shape=mxgraph.mockup.forms.rrect;rSize=0;strokeColor=#999999;fontColor=#999999;fillColor=#ddeeff;" vertex="1" parent="9RlxNMYtPZdb5CsPDulE-16">
          <mxGeometry x="130" y="150.11428571428573" width="20" height="20.28571428571429" as="geometry" />
        </mxCell>
        <mxCell id="9RlxNMYtPZdb5CsPDulE-68" value="24" style="strokeWidth=1;shadow=0;dashed=0;align=center;html=1;shape=mxgraph.mockup.forms.rrect;rSize=0;strokeColor=#ff0000;fontColor=#ffffff;strokeWidth=2;fillColor=#008cff;" vertex="1" parent="9RlxNMYtPZdb5CsPDulE-16">
          <mxGeometry x="50" y="109.54285714285713" width="20" height="20.28571428571429" as="geometry" />
        </mxCell>
      </root>
    </mxGraphModel>
  </diagram>
  <diagram id="1JC7eJ_x1ICRuSRbZW_D" name="Data Flow Diagram">
    <mxGraphModel dx="1689" dy="1046" grid="1" gridSize="10" guides="1" tooltips="1" connect="1" arrows="1" fold="1" page="1" pageScale="1" pageWidth="1100" pageHeight="850" math="0" shadow="0">
      <root>
        <mxCell id="0" />
        <mxCell id="1" parent="0" />
        <mxCell id="OCPI3XB5EGC0HS3tZTAH-1" value="" style="whiteSpace=wrap;html=1;rounded=0;shadow=0;labelBackgroundColor=none;strokeWidth=1;fillColor=none;fontFamily=Verdana;fontSize=12;align=center;comic=1;" vertex="1" parent="1">
          <mxGeometry x="30" y="30" width="1030" height="50" as="geometry" />
        </mxCell>
      </root>
    </mxGraphModel>
  </diagram>
  <diagram id="vofZdob3wbRV3QqSw1u8" name="Data Model">
    <mxGraphModel dx="1182" dy="732" grid="1" gridSize="10" guides="1" tooltips="1" connect="1" arrows="1" fold="1" page="1" pageScale="1" pageWidth="1100" pageHeight="850" math="0" shadow="0">
      <root>
        <mxCell id="0" />
        <mxCell id="1" parent="0" />
        <mxCell id="yH6OaC2MtAC2Qdwhjfnx-1" value="" style="strokeWidth=1;shadow=0;dashed=0;align=center;html=1;shape=mxgraph.mockup.rrect;rSize=10;fillColor=#ffffff;strokeColor=#666666;" vertex="1" parent="1">
          <mxGeometry x="40" y="40" width="500" height="50" as="geometry" />
        </mxCell>
        <mxCell id="yH6OaC2MtAC2Qdwhjfnx-2" value="Dimension 1" style="strokeColor=inherit;fillColor=inherit;gradientColor=inherit;strokeWidth=1;shadow=0;dashed=0;align=center;html=1;shape=mxgraph.mockup.rrect;rSize=0;fontSize=17;fontColor=#666666;fontStyle=1;resizeHeight=1;" vertex="1" parent="yH6OaC2MtAC2Qdwhjfnx-1">
          <mxGeometry width="125" height="50" relative="1" as="geometry">
            <mxPoint x="125" as="offset" />
          </mxGeometry>
        </mxCell>
        <mxCell id="yH6OaC2MtAC2Qdwhjfnx-3" value="Dimension 2" style="strokeColor=inherit;fillColor=inherit;gradientColor=inherit;strokeWidth=1;shadow=0;dashed=0;align=center;html=1;shape=mxgraph.mockup.rrect;rSize=0;fontSize=17;fontColor=#666666;fontStyle=1;resizeHeight=1;" vertex="1" parent="yH6OaC2MtAC2Qdwhjfnx-1">
          <mxGeometry width="125" height="50" relative="1" as="geometry">
            <mxPoint x="250" as="offset" />
          </mxGeometry>
        </mxCell>
        <mxCell id="yH6OaC2MtAC2Qdwhjfnx-4" value="Dimension 3" style="strokeColor=inherit;fillColor=inherit;gradientColor=inherit;strokeWidth=1;shadow=0;dashed=0;align=center;html=1;shape=mxgraph.mockup.rightButton;rSize=10;fontSize=17;fontColor=#666666;fontStyle=1;resizeHeight=1;" vertex="1" parent="yH6OaC2MtAC2Qdwhjfnx-1">
          <mxGeometry x="1" width="125" height="50" relative="1" as="geometry">
            <mxPoint x="-125" as="offset" />
          </mxGeometry>
        </mxCell>
        <mxCell id="yH6OaC2MtAC2Qdwhjfnx-5" value="FACT" style="strokeWidth=1;shadow=0;dashed=0;align=center;html=1;shape=mxgraph.mockup.leftButton;rSize=10;fontSize=17;fontColor=#ffffff;fontStyle=1;fillColor=#008cff;strokeColor=#008cff;resizeHeight=1;" vertex="1" parent="yH6OaC2MtAC2Qdwhjfnx-1">
          <mxGeometry width="125" height="50" relative="1" as="geometry" />
        </mxCell>
        <UserObject label="FACT" treeRoot="1" id="7XE7otj8bdcK_qHY_p53-6">
          <mxCell style="whiteSpace=wrap;html=1;align=center;treeFolding=1;treeMoving=1;newEdgeStyle={&quot;edgeStyle&quot;:&quot;elbowEdgeStyle&quot;,&quot;startArrow&quot;:&quot;none&quot;,&quot;endArrow&quot;:&quot;none&quot;};fillColor=#008CFF;strokeColor=#6c8ebf;fontStyle=1;fontSize=15;fontColor=#FFFFFF;" vertex="1" parent="1">
            <mxGeometry x="360" y="150" width="120" height="60" as="geometry" />
          </mxCell>
        </UserObject>
        <mxCell id="7XE7otj8bdcK_qHY_p53-7" value="Dimension" style="whiteSpace=wrap;html=1;align=center;verticalAlign=middle;treeFolding=1;treeMoving=1;newEdgeStyle={&quot;edgeStyle&quot;:&quot;elbowEdgeStyle&quot;,&quot;startArrow&quot;:&quot;none&quot;,&quot;endArrow&quot;:&quot;none&quot;};fontStyle=1" vertex="1" parent="1">
          <mxGeometry x="460" y="250" width="100" height="60" as="geometry" />
        </mxCell>
        <mxCell id="7XE7otj8bdcK_qHY_p53-8" value="" style="edgeStyle=elbowEdgeStyle;elbow=vertical;startArrow=ERone;endArrow=ERoneToMany;rounded=0;startFill=0;endFill=0;" edge="1" target="7XE7otj8bdcK_qHY_p53-7" parent="1" source="7XE7otj8bdcK_qHY_p53-6">
          <mxGeometry relative="1" as="geometry">
            <mxPoint x="440" y="210" as="sourcePoint" />
          </mxGeometry>
        </mxCell>
      </root>
    </mxGraphModel>
  </diagram>
</mxfile>
